<mxfile host="app.diagrams.net" agent="Mozilla/5.0 (Windows NT 10.0; Win64; x64) AppleWebKit/537.36 (KHTML, like Gecko) Chrome/130.0.0.0 Safari/537.36" version="24.8.3">
  <diagram id="C5RBs43oDa-KdzZeNtuy" name="Page-1">
    <mxGraphModel dx="951" dy="1662" grid="1" gridSize="10" guides="1" tooltips="1" connect="1" arrows="1" fold="1" page="1" pageScale="1" pageWidth="827" pageHeight="1169" math="0" shadow="0">
      <root>
        <mxCell id="WIyWlLk6GJQsqaUBKTNV-0" />
        <mxCell id="WIyWlLk6GJQsqaUBKTNV-1" parent="WIyWlLk6GJQsqaUBKTNV-0" />
        <mxCell id="PFJ4Xxtrhk-8AiKv2nl5-65" style="edgeStyle=orthogonalEdgeStyle;rounded=0;orthogonalLoop=1;jettySize=auto;html=1;exitX=1;exitY=0.5;exitDx=0;exitDy=0;entryX=1;entryY=0.5;entryDx=0;entryDy=0;" edge="1" parent="WIyWlLk6GJQsqaUBKTNV-1" source="bN-P1kHnJF0jbWK8b9s9-6" target="PFJ4Xxtrhk-8AiKv2nl5-3">
          <mxGeometry relative="1" as="geometry" />
        </mxCell>
        <mxCell id="bN-P1kHnJF0jbWK8b9s9-6" value="Afficher indice" style="rounded=1;whiteSpace=wrap;html=1;fontSize=12;glass=0;strokeWidth=1;shadow=0;" parent="WIyWlLk6GJQsqaUBKTNV-1" vertex="1">
          <mxGeometry x="550" y="410" width="120" height="40" as="geometry" />
        </mxCell>
        <mxCell id="bN-P1kHnJF0jbWK8b9s9-11" value="Marquer une case" style="rounded=1;whiteSpace=wrap;html=1;fontSize=12;glass=0;strokeWidth=1;shadow=0;" parent="WIyWlLk6GJQsqaUBKTNV-1" vertex="1">
          <mxGeometry x="165" y="320" width="120" height="40" as="geometry" />
        </mxCell>
        <mxCell id="fz4h5eo164-xyuthegBj-16" value="Fin" style="ellipse;shape=doubleEllipse;whiteSpace=wrap;html=1;aspect=fixed;" parent="WIyWlLk6GJQsqaUBKTNV-1" vertex="1">
          <mxGeometry x="379" y="630" width="50" height="50" as="geometry" />
        </mxCell>
        <mxCell id="PFJ4Xxtrhk-8AiKv2nl5-55" style="edgeStyle=orthogonalEdgeStyle;rounded=0;orthogonalLoop=1;jettySize=auto;html=1;exitX=0.5;exitY=1;exitDx=0;exitDy=0;entryX=0.5;entryY=0;entryDx=0;entryDy=0;" edge="1" parent="WIyWlLk6GJQsqaUBKTNV-1" source="PFJ4Xxtrhk-8AiKv2nl5-0" target="PFJ4Xxtrhk-8AiKv2nl5-3">
          <mxGeometry relative="1" as="geometry" />
        </mxCell>
        <mxCell id="PFJ4Xxtrhk-8AiKv2nl5-0" value="Choix du niveau" style="rounded=1;whiteSpace=wrap;html=1;fontSize=12;glass=0;strokeWidth=1;shadow=0;" vertex="1" parent="WIyWlLk6GJQsqaUBKTNV-1">
          <mxGeometry x="275" y="60" width="90" height="40" as="geometry" />
        </mxCell>
        <mxCell id="PFJ4Xxtrhk-8AiKv2nl5-53" style="edgeStyle=orthogonalEdgeStyle;rounded=0;orthogonalLoop=1;jettySize=auto;html=1;exitX=0.5;exitY=1;exitDx=0;exitDy=0;entryX=0.5;entryY=0;entryDx=0;entryDy=0;" edge="1" parent="WIyWlLk6GJQsqaUBKTNV-1" source="PFJ4Xxtrhk-8AiKv2nl5-1" target="PFJ4Xxtrhk-8AiKv2nl5-0">
          <mxGeometry relative="1" as="geometry" />
        </mxCell>
        <mxCell id="PFJ4Xxtrhk-8AiKv2nl5-1" value="Début" style="ellipse;shape=doubleEllipse;whiteSpace=wrap;html=1;aspect=fixed;" vertex="1" parent="WIyWlLk6GJQsqaUBKTNV-1">
          <mxGeometry x="294" y="-20" width="50" height="50" as="geometry" />
        </mxCell>
        <mxCell id="PFJ4Xxtrhk-8AiKv2nl5-46" style="edgeStyle=orthogonalEdgeStyle;rounded=0;orthogonalLoop=1;jettySize=auto;html=1;exitX=1;exitY=0.5;exitDx=0;exitDy=0;entryX=0.5;entryY=0;entryDx=0;entryDy=0;" edge="1" parent="WIyWlLk6GJQsqaUBKTNV-1" source="PFJ4Xxtrhk-8AiKv2nl5-2" target="PFJ4Xxtrhk-8AiKv2nl5-5">
          <mxGeometry relative="1" as="geometry" />
        </mxCell>
        <mxCell id="PFJ4Xxtrhk-8AiKv2nl5-64" value="&quot;clique gauche&quot;" style="edgeLabel;html=1;align=center;verticalAlign=middle;resizable=0;points=[];" vertex="1" connectable="0" parent="PFJ4Xxtrhk-8AiKv2nl5-46">
          <mxGeometry x="0.013" y="-2" relative="1" as="geometry">
            <mxPoint as="offset" />
          </mxGeometry>
        </mxCell>
        <mxCell id="PFJ4Xxtrhk-8AiKv2nl5-47" style="edgeStyle=orthogonalEdgeStyle;rounded=0;orthogonalLoop=1;jettySize=auto;html=1;exitX=0;exitY=0.5;exitDx=0;exitDy=0;entryX=0.5;entryY=0;entryDx=0;entryDy=0;" edge="1" parent="WIyWlLk6GJQsqaUBKTNV-1" source="PFJ4Xxtrhk-8AiKv2nl5-2" target="bN-P1kHnJF0jbWK8b9s9-11">
          <mxGeometry relative="1" as="geometry" />
        </mxCell>
        <mxCell id="PFJ4Xxtrhk-8AiKv2nl5-63" value="&quot;clique droit&quot;" style="edgeLabel;html=1;align=center;verticalAlign=middle;resizable=0;points=[];" vertex="1" connectable="0" parent="PFJ4Xxtrhk-8AiKv2nl5-47">
          <mxGeometry x="-0.1515" y="-1" relative="1" as="geometry">
            <mxPoint as="offset" />
          </mxGeometry>
        </mxCell>
        <mxCell id="PFJ4Xxtrhk-8AiKv2nl5-2" value="" style="rhombus;whiteSpace=wrap;html=1;" vertex="1" parent="WIyWlLk6GJQsqaUBKTNV-1">
          <mxGeometry x="310" y="220" width="20" height="40" as="geometry" />
        </mxCell>
        <mxCell id="PFJ4Xxtrhk-8AiKv2nl5-56" style="edgeStyle=orthogonalEdgeStyle;rounded=0;orthogonalLoop=1;jettySize=auto;html=1;exitX=0.5;exitY=1;exitDx=0;exitDy=0;entryX=0.5;entryY=0;entryDx=0;entryDy=0;" edge="1" parent="WIyWlLk6GJQsqaUBKTNV-1" source="PFJ4Xxtrhk-8AiKv2nl5-3" target="PFJ4Xxtrhk-8AiKv2nl5-2">
          <mxGeometry relative="1" as="geometry" />
        </mxCell>
        <mxCell id="PFJ4Xxtrhk-8AiKv2nl5-3" value="cliquer sur une case" style="rounded=1;whiteSpace=wrap;html=1;fontSize=12;glass=0;strokeWidth=1;shadow=0;" vertex="1" parent="WIyWlLk6GJQsqaUBKTNV-1">
          <mxGeometry x="260" y="140" width="120" height="40" as="geometry" />
        </mxCell>
        <mxCell id="PFJ4Xxtrhk-8AiKv2nl5-17" style="edgeStyle=orthogonalEdgeStyle;rounded=0;orthogonalLoop=1;jettySize=auto;html=1;exitX=0.5;exitY=1;exitDx=0;exitDy=0;entryX=0.5;entryY=0;entryDx=0;entryDy=0;" edge="1" parent="WIyWlLk6GJQsqaUBKTNV-1" source="PFJ4Xxtrhk-8AiKv2nl5-5" target="PFJ4Xxtrhk-8AiKv2nl5-13">
          <mxGeometry relative="1" as="geometry" />
        </mxCell>
        <mxCell id="PFJ4Xxtrhk-8AiKv2nl5-5" value="Découvrir" style="rounded=1;whiteSpace=wrap;html=1;fontSize=12;glass=0;strokeWidth=1;shadow=0;" vertex="1" parent="WIyWlLk6GJQsqaUBKTNV-1">
          <mxGeometry x="344" y="320" width="120" height="40" as="geometry" />
        </mxCell>
        <mxCell id="PFJ4Xxtrhk-8AiKv2nl5-48" style="edgeStyle=orthogonalEdgeStyle;rounded=0;orthogonalLoop=1;jettySize=auto;html=1;exitX=0;exitY=0.5;exitDx=0;exitDy=0;entryX=1;entryY=0.5;entryDx=0;entryDy=0;" edge="1" parent="WIyWlLk6GJQsqaUBKTNV-1" source="PFJ4Xxtrhk-8AiKv2nl5-13" target="PFJ4Xxtrhk-8AiKv2nl5-22">
          <mxGeometry relative="1" as="geometry" />
        </mxCell>
        <mxCell id="PFJ4Xxtrhk-8AiKv2nl5-58" value="ismine=True" style="edgeLabel;html=1;align=center;verticalAlign=middle;resizable=0;points=[];" vertex="1" connectable="0" parent="PFJ4Xxtrhk-8AiKv2nl5-48">
          <mxGeometry x="-0.32" y="1" relative="1" as="geometry">
            <mxPoint as="offset" />
          </mxGeometry>
        </mxCell>
        <mxCell id="PFJ4Xxtrhk-8AiKv2nl5-49" style="edgeStyle=orthogonalEdgeStyle;rounded=0;orthogonalLoop=1;jettySize=auto;html=1;exitX=1;exitY=0.5;exitDx=0;exitDy=0;entryX=0;entryY=0.5;entryDx=0;entryDy=0;" edge="1" parent="WIyWlLk6GJQsqaUBKTNV-1" source="PFJ4Xxtrhk-8AiKv2nl5-13" target="bN-P1kHnJF0jbWK8b9s9-6">
          <mxGeometry relative="1" as="geometry" />
        </mxCell>
        <mxCell id="PFJ4Xxtrhk-8AiKv2nl5-61" value="ismine=False" style="edgeLabel;html=1;align=center;verticalAlign=middle;resizable=0;points=[];" vertex="1" connectable="0" parent="PFJ4Xxtrhk-8AiKv2nl5-49">
          <mxGeometry x="-0.2353" y="-1" relative="1" as="geometry">
            <mxPoint as="offset" />
          </mxGeometry>
        </mxCell>
        <mxCell id="PFJ4Xxtrhk-8AiKv2nl5-50" style="edgeStyle=orthogonalEdgeStyle;rounded=0;orthogonalLoop=1;jettySize=auto;html=1;exitX=0.5;exitY=1;exitDx=0;exitDy=0;entryX=0.5;entryY=0;entryDx=0;entryDy=0;" edge="1" parent="WIyWlLk6GJQsqaUBKTNV-1" source="PFJ4Xxtrhk-8AiKv2nl5-13" target="PFJ4Xxtrhk-8AiKv2nl5-24">
          <mxGeometry relative="1" as="geometry" />
        </mxCell>
        <mxCell id="PFJ4Xxtrhk-8AiKv2nl5-62" value="ismine=False and isover=True" style="edgeLabel;html=1;align=center;verticalAlign=middle;resizable=0;points=[];" vertex="1" connectable="0" parent="PFJ4Xxtrhk-8AiKv2nl5-50">
          <mxGeometry x="-0.0917" y="3" relative="1" as="geometry">
            <mxPoint as="offset" />
          </mxGeometry>
        </mxCell>
        <mxCell id="PFJ4Xxtrhk-8AiKv2nl5-13" value="" style="rhombus;whiteSpace=wrap;html=1;" vertex="1" parent="WIyWlLk6GJQsqaUBKTNV-1">
          <mxGeometry x="394" y="410" width="20" height="40" as="geometry" />
        </mxCell>
        <mxCell id="PFJ4Xxtrhk-8AiKv2nl5-52" style="edgeStyle=orthogonalEdgeStyle;rounded=0;orthogonalLoop=1;jettySize=auto;html=1;exitX=0.5;exitY=1;exitDx=0;exitDy=0;entryX=0;entryY=0.5;entryDx=0;entryDy=0;" edge="1" parent="WIyWlLk6GJQsqaUBKTNV-1" source="PFJ4Xxtrhk-8AiKv2nl5-22" target="fz4h5eo164-xyuthegBj-16">
          <mxGeometry relative="1" as="geometry" />
        </mxCell>
        <mxCell id="PFJ4Xxtrhk-8AiKv2nl5-22" value="minée" style="rounded=1;whiteSpace=wrap;html=1;fontSize=12;glass=0;strokeWidth=1;shadow=0;" vertex="1" parent="WIyWlLk6GJQsqaUBKTNV-1">
          <mxGeometry x="160" y="410" width="120" height="40" as="geometry" />
        </mxCell>
        <mxCell id="PFJ4Xxtrhk-8AiKv2nl5-51" style="edgeStyle=orthogonalEdgeStyle;rounded=0;orthogonalLoop=1;jettySize=auto;html=1;exitX=0.5;exitY=1;exitDx=0;exitDy=0;entryX=0.5;entryY=0;entryDx=0;entryDy=0;" edge="1" parent="WIyWlLk6GJQsqaUBKTNV-1" source="PFJ4Xxtrhk-8AiKv2nl5-24" target="fz4h5eo164-xyuthegBj-16">
          <mxGeometry relative="1" as="geometry" />
        </mxCell>
        <mxCell id="PFJ4Xxtrhk-8AiKv2nl5-24" value="Gagnée" style="rounded=1;whiteSpace=wrap;html=1;fontSize=12;glass=0;strokeWidth=1;shadow=0;" vertex="1" parent="WIyWlLk6GJQsqaUBKTNV-1">
          <mxGeometry x="344" y="530" width="120" height="40" as="geometry" />
        </mxCell>
      </root>
    </mxGraphModel>
  </diagram>
</mxfile>
